<?xml version="1.0" encoding="utf-8"?>
<!-- Generator: Adobe Illustrator 16.0.0, SVG Export Plug-In . SVG Version: 6.00 Build 0)  -->
<!DOCTYPE svg PUBLIC "-//W3C//DTD SVG 1.1//EN" "http://www.w3.org/Graphics/SVG/1.1/DTD/svg11.dtd">
<svg version="1.1" id="Layer_1" xmlns="http://www.w3.org/2000/svg" xmlns:xlink="http://www.w3.org/1999/xlink" x="0px" y="0px"
	 width="211.492px" height="124.492px" viewBox="0 4.105 211.492 124.492" enable-background="new 0 4.105 211.492 124.492"
	 xml:space="preserve">
<g>
	<path d="M203.961,43.179c4.949-4.293,7.201-8.652,7.502-12.8c0.631-8.731-8.928-11.545-8.928-11.545l-1.15,2.199
		c0,0,5.793,2.783,6.254,5.038c0.357,1.75-0.123,3.186-0.881,3.998c-0.715,0.767-2.852,1.568-4.713,0.689l-35.449-17.815
		c-6.035-3.125-17.623-10.333-31.682-6.471c-14.059,3.862-15.656,19.04-9.857,30.553l2.912-1.153
		c-0.779-1.66-2.74-9.166,3.029-12.659c4.656-2.733,10.713-2.392,15.572,0.082c0.018,0.008,38.162,21.473,38.162,21.473
		s-12.598,5.146-17.342,18.977c-1.828,5.49,0.707,13.9,3.047,18.167c2.309,4.2,4.797,8.321,4.797,13.146
		c0,0,0.221,3.799-1.588,6.674c-1.725,3.283-8.307,5.701-8.307,5.701s-21.811-12.644-12.861-42.332
		c3.143-10.434,14.029-17.762,14.029-17.762l-1.246-1.383c0,0-26.438,10.424-31.152,31.818c-2.154,9.769-2.117,24.17,6.508,35.381
		c10.166,13.22,31.938,19.15,46.428,12.314c5.43-2.146,10.494-6.408,14.283-11.326c5.514-7.156,7.535-18.445,7.535-18.445
		l-2.363-0.002c0,0-1.523,7.293-5.275,10.855c-10.365,9.848-28.645,5.152-32.82,2.77c0,0,6.07-2.536,10.135-5.104
		c9.289-5.904,13.117-15.576,13.117-19.428c0,0,1.055-7.592-4.52-16.85c-1.414-2.349-2.797-4.812-3.797-7.403
		c-2.971-7.677,4.113-14.724,4.113-14.724C193.096,47.22,199.555,46.347,203.961,43.179z"/>
	<path d="M99.05,61.961c0,0,4.403-2.549,9.237-7.044c4.721-4.389,6.635-9.387,6.365-14.145c-0.354-6.237-2.861-11.117-7.389-16.466
		c-4.185-4.947-5.469-8.877-5.469-11.613c0-0.939,0.133-1.643,0.207-2.074c0.434-2.519,4.596-4.604,4.596-4.604V4.883
		c0,0-17.786,3.019-29.093,12.438c-7.954,6.627-13.153,13.825-13.153,13.825c-6.14-16.471-19.623-26.767-35.07-27.032
		C-4.41,3.534-1.77,31.8,2.402,38.509l2.516-1.507c-1.169-5.795-2.188-14.014,9.685-16.591c10.007-2.171,19.125,2.072,27.021,13.634
		c6.208,9.088,8.282,20.664,8.282,31.44c0,13.205-6.496,25.791-6.496,25.791l0.837,1.117c0,0,21.79-17.478,21.79-51.061
		c0-1.896-0.241-4.256-0.6-6.202c0,0,0.909-1.958,3.755-5.329c0.007-0.006,3.857-4.607,3.857-4.607v33.877
		c0,0-4.265,0.88-4.265,3.525c0,2.916,4.265,3.578,4.265,3.578v30.789c0,0-4.052-0.746-7.896,2.363
		c0,0.001-10.094,10.348-10.094,10.348S33.914,90.063,32.352,86.959c-1.059-2.106-1.73-4.114-1.586-6.549
		c0.124-2.073,0.712-3.067,1.661-4.257c1.833-2.295,5.525-2.268,5.525-2.268l0.118-2.156c0,0-6.353-0.102-11.391,4.187
		c-6.181,5.261-7.847,12.369-7.904,16.165c-0.081,5.288,1.16,9.169,4.512,14.434c2.979,4.68,20.274,20.068,20.274,20.068
		l18.361-20.488c0,0-1.664,6.729,1.303,11.948c5.121,9.009,12.189,11.324,23.925,10.347c11.388-0.949,18.802-5.588,23.137-15.953
		c2.752-6.584,3.33-14.156,3.33-19.349c0-8.009-1.396-16.116-3.562-20.657C106.504,64.974,99.05,61.961,99.05,61.961z
		 M92.587,112.53c0,3.666,0.123,4.882-1.773,7.32c-0.547,0.703-9.896,7.049-16.669,3.762c-11.153-5.416-9.478-14.778-9.312-15.902
		c0,0,1.474,5.503,7.421,5.916c4.117,0.285,7.617-2.993,8.506-6.357c1.712-6.473-3.838-9.283-3.837-9.283V66.28
		c0,0,1.423,0.123,3.795-0.084c4.884-0.428,9.312-0.75,9.312-0.75s2.464-0.428,2.56,5.5L92.587,112.53L92.587,112.53z M94.982,60.09
		c-2.235-0.646-4.901-0.971-6.879-1.153c-5.575-0.246-10.302-0.127-10.983-0.135c0-0.804,0-37.013,0-37.165
		c7.562-6.183,11.729-7.606,13.562-6.437c-1.151,2.237-3.391,7.033-3.391,13.404c0,5.017,2.61,10.133,5.665,13.791
		c2.423,2.896,5.791,5.086,5.791,10.17C98.744,56.55,95.128,59.96,94.982,60.09z"/>
</g>
</svg>
