<?xml version="1.0" encoding="utf-8"?>
<!-- Generator: Adobe Illustrator 16.0.0, SVG Export Plug-In . SVG Version: 6.00 Build 0)  -->
<!DOCTYPE svg PUBLIC "-//W3C//DTD SVG 1.1//EN" "http://www.w3.org/Graphics/SVG/1.1/DTD/svg11.dtd">
<svg version="1.1" id="Layer_1" xmlns="http://www.w3.org/2000/svg" xmlns:xlink="http://www.w3.org/1999/xlink" x="0px" y="0px"
	 width="211.492px" height="124.494px" viewBox="20.258 42.105 211.492 124.494"
	 enable-background="new 20.258 42.105 211.492 124.494" xml:space="preserve">
<g>
	<path fill="#042A55" d="M224.218,81.178c4.951-4.292,7.202-8.651,7.502-12.799c0.631-8.731-8.927-11.545-8.927-11.545l-1.151,2.199
		c0,0,5.794,2.783,6.255,5.039c0.357,1.75-0.124,3.185-0.882,3.998c-0.714,0.766-2.85,1.567-4.713,0.689l-35.449-17.815
		c-6.035-3.125-17.623-10.333-31.68-6.471c-14.059,3.862-15.658,19.04-9.859,30.554l2.912-1.154
		c-0.778-1.66-2.74-9.166,3.031-12.659c4.656-2.733,10.712-2.392,15.572,0.082c0.017,0.008,38.161,21.473,38.161,21.473
		s-12.598,5.146-17.342,18.976c-1.827,5.491,0.707,13.901,3.048,18.167c2.308,4.201,4.797,8.322,4.797,13.145
		c0,0,0.221,3.799-1.588,6.674c-1.725,3.283-8.308,5.701-8.308,5.701s-21.81-12.643-12.861-42.332
		c3.144-10.433,14.03-17.761,14.03-17.761l-1.246-1.383c0,0-26.437,10.424-31.152,31.819c-2.154,9.768-2.118,24.17,6.507,35.381
		c10.167,13.219,31.937,19.15,46.428,12.314c5.43-2.146,10.494-6.408,14.283-11.326c5.513-7.156,7.536-18.445,7.536-18.445
		l-2.364-0.002c0,0-1.524,7.293-5.276,10.855c-10.364,9.848-28.644,5.152-32.82,2.77c0,0,6.071-2.537,10.136-5.104
		c9.289-5.904,13.117-15.576,13.117-19.428c0,0,1.053-7.592-4.521-16.85c-1.413-2.348-2.797-4.812-3.797-7.403
		c-2.969-7.676,4.115-14.724,4.115-14.724C213.353,85.22,219.813,84.346,224.218,81.178z"/>
	<path fill="#042A55" d="M119.309,99.961c0,0,4.403-2.549,9.236-7.044c4.721-4.388,6.634-9.387,6.366-14.144
		c-0.354-6.238-2.861-11.118-7.389-16.467c-4.185-4.947-5.47-8.877-5.47-11.613c0-0.939,0.134-1.643,0.208-2.074
		c0.434-2.519,4.596-4.604,4.596-4.604v-1.132c0,0-17.785,3.019-29.093,12.438C89.809,61.948,84.61,69.146,84.61,69.146
		C78.47,52.675,64.987,42.379,49.54,42.114C15.848,41.534,18.489,69.8,22.66,76.509l2.516-1.507
		c-1.169-5.795-2.188-14.014,9.685-16.591c10.007-2.171,19.125,2.072,27.021,13.634c6.208,9.088,8.282,20.664,8.282,31.441
		c0,13.205-6.496,25.791-6.496,25.791l0.837,1.117c0,0,21.79-17.478,21.79-51.061c0-1.896-0.241-4.256-0.6-6.202
		c0,0,0.909-1.958,3.755-5.329c0.007-0.006,3.857-4.608,3.857-4.608v33.877c0,0-4.265,0.88-4.265,3.526
		c0,2.916,4.265,3.578,4.265,3.578v30.789c0,0-4.052-0.746-7.896,2.363c0,0.001-10.094,10.348-10.094,10.348
		s-21.145-19.611-22.707-22.716c-1.059-2.106-1.73-4.114-1.586-6.549c0.124-2.073,0.712-3.067,1.661-4.257
		c1.833-2.295,5.525-2.268,5.525-2.268l0.118-2.156c0,0-6.353-0.101-11.391,4.187c-6.181,5.261-7.847,12.369-7.904,16.165
		c-0.081,5.288,1.16,9.169,4.512,14.434c2.979,4.68,20.274,20.068,20.274,20.068l18.361-20.488c0,0-1.664,6.729,1.303,11.948
		c5.121,9.009,12.189,11.324,23.925,10.347c11.388-0.949,18.802-5.588,23.138-15.953c2.752-6.584,3.329-14.156,3.329-19.349
		c0-8.009-1.396-16.116-3.562-20.657C126.762,102.973,119.309,99.961,119.309,99.961z M112.845,150.531
		c0,3.666,0.124,4.881-1.773,7.32c-0.546,0.703-9.896,7.049-16.669,3.762c-11.153-5.416-9.478-14.779-9.312-15.903
		c0,0,1.474,5.503,7.421,5.916c4.117,0.285,7.617-2.993,8.506-6.358c1.712-6.472-3.838-9.283-3.837-9.283v-31.705
		c0,0,1.423,0.123,3.795-0.084c4.884-0.428,9.312-0.75,9.312-0.75s2.464-0.428,2.56,5.5L112.845,150.531L112.845,150.531z
		 M115.24,98.09c-2.235-0.645-4.901-0.971-6.879-1.153c-5.575-0.247-10.302-0.127-10.983-0.136c0-0.803,0-37.012,0-37.164
		c7.562-6.183,11.729-7.606,13.561-6.437c-1.151,2.237-3.39,7.033-3.39,13.405c0,5.016,2.61,10.133,5.665,13.79
		c2.422,2.896,5.791,5.087,5.791,10.171C119.002,94.55,115.386,97.96,115.24,98.09z"/>
</g>
</svg>
