<?xml version="1.0" encoding="utf-8"?>
<!-- Generator: Adobe Illustrator 16.0.0, SVG Export Plug-In . SVG Version: 6.00 Build 0)  -->
<!DOCTYPE svg PUBLIC "-//W3C//DTD SVG 1.1//EN" "http://www.w3.org/Graphics/SVG/1.1/DTD/svg11.dtd">
<svg version="1.1" id="Layer_1" xmlns="http://www.w3.org/2000/svg" xmlns:xlink="http://www.w3.org/1999/xlink" x="0px" y="0px"
	 width="842.062px" height="207.27px" viewBox="0 0 842.062 207.27" enable-background="new 0 0 842.062 207.27"
	 xml:space="preserve">
<g>
	<g>
		<path fill="#FFFFFF" d="M190.553,63.077c-0.523-10.46-4.707-18.479-12.378-27.546c-6.974-8.021-9.065-14.646-9.065-19.177
			c0-1.569,0.175-2.79,0.35-3.487c0.696-4.186,7.671-7.671,7.671-7.671V3.278c0,0-25.628,10.286-38.704,20.747
			c-13.599,10.809-21.967,23.013-21.967,23.013C106.173,19.667,83.684,2.929,58.055,2.058C44.283,1.71,24.582,6.765,12.03,19.318
			C4.009,27.163-0.001,38.147-0.001,49.13C0.87,77.548,19.874,88.357,19.874,88.357l1.22-2.44c0,0-7.496-8.02-8.368-20.398
			c-0.697-11.681,7.148-21.791,17.26-25.977c14.993-6.276,31.904-0.174,45.154,16.214C86.646,70.052,92.4,86.44,92.4,104.397
			c0,21.968-10.81,43.062-10.81,43.062l1.395,1.918c0,0,36.265-29.115,36.265-85.078c0-3.139-0.351-7.147-1.047-10.286
			c0,0,1.568-3.312,6.275-8.892l6.451-7.671v56.486c0,0-7.147,1.395-7.147,5.928c0,4.882,7.147,5.928,7.147,5.928v51.256
			c0,0-6.8-1.221-13.25,4.01l-16.911,17.261c0,0-34.868-32.253-37.832-37.832c-1.918-3.486-2.439-7.497-2.439-10.983
			s0.871-6.45,2.439-8.717c2.615-3.836,9.24-3.836,9.24-3.836l0.174-1.918c0,0-10.635-0.174-19.003,6.974
			c-10.286,8.718-13.075,20.572-13.25,26.849c-0.174,8.893,1.918,15.343,7.497,24.061c5.056,7.845,33.822,33.473,33.822,33.473
			l30.684-34.17c0,0-2.439,10.983,2.268,19.874c5.753,11.507,15.517,16.562,30.51,16.562c18.131,0,30.856-8.543,38.18-25.804
			c4.533-10.982,5.579-23.534,5.579-32.252c0-13.25-2.267-26.849-5.928-34.346c-5.927-12.378-18.307-17.434-18.307-17.434
			s7.322-4.186,15.344-11.682C187.938,79.465,191.076,71.096,190.553,63.077 M153.767,187.556c0,2.267,0.35,5.928-1.395,9.414
			c-0.697,1.396-6.45,9.589-19.7,4.358c-19.178-7.846-15.69-24.582-15.518-26.5c0,0,2.441,9.24,12.379,9.764
			c6.8,0.522,12.728-5.057,14.296-10.635c2.79-10.81-6.45-15.517-6.45-15.517v-52.825c0,0,2.439,0.175,6.275-0.174
			c4.011-0.35,8.194-1.396,8.194-1.396s1.743,1.396,1.917,9.415L153.767,187.556L153.767,187.556z M157.777,95.33
			c-3.835-1.046-8.192-1.569-11.506-1.918c-3.139-0.349-7.321-0.174-8.543-0.174V31.173c4.707-5.056,8.893-7.671,12.204-9.589
			c-1.918,3.661-5.056,10.461-5.056,21.096c0,8.368,4.357,16.911,9.414,23.014c4.01,4.882,9.589,8.543,9.589,16.911
			C164.053,89.403,157.951,95.156,157.777,95.33"/>
		<path fill="#FFFFFF" d="M339.091,172.04c-17.261,16.388-47.771,8.543-54.743,4.707c0,0,10.112-4.184,16.911-8.543
			c15.517-9.938,21.967-25.978,21.967-32.427c0,0,1.743-12.554-7.497-28.069c-2.44-3.835-4.707-8.02-6.275-12.378
			c-4.881-12.901,6.8-24.582,6.8-24.582c9.414,2.267,20.224,0.872,27.546-4.358c8.193-7.146,12.028-14.47,12.553-21.27
			c1.046-14.646-14.819-19.352-14.819-19.352l-1.918,3.66c0,0,9.589,4.707,10.461,8.368c0.697,2.964-0.175,5.23-1.395,6.625
			c-1.221,1.222-4.708,2.615-7.846,1.222l-59.103-29.64c-19.003-9.937-37.656-20.746-59.624-10.46
			c-16.91,8.717-26.324,29.812-22.142,48.989c1.918,9.938,9.415,16.911,20.572,18.655c6.451,1.046,15.342-0.698,20.571-6.104
			c0.176-0.174,0.176-0.349,0.176-0.349l-2.268-2.789l-0.175,0.174c-3.835,3.139-8.02,4.882-13.771,5.229
			c-7.148,0-15.865-4.706-18.307-12.727c-2.267-8.718,1.22-17.607,9.065-23.362c6.625-4.01,16.388-4.357,23.885-0.87l72.524,36.784
			c0,0-20.92,8.543-28.939,31.73c-2.964,9.064,1.221,23.188,5.056,30.335c3.836,6.974,8.021,13.772,8.021,21.967
			c0,0,0.349,6.276-2.614,11.158c-2.79,5.404-13.947,9.414-13.947,9.414s-36.438-21.095-21.443-70.607
			c5.229-17.435,23.36-29.638,23.36-29.638l-2.789-2.441c0,0-44.107,17.436-51.952,53c-3.661,16.214-3.487,40.272,10.809,58.928
			c16.911,21.967,53.174,31.903,77.407,20.571c9.064-3.66,17.434-10.635,23.71-19.003c9.239-11.854,12.553-30.685,12.553-30.685
			h-4.01C347.808,153.908,345.193,166.113,339.091,172.04"/>
	</g>
</g>
<g>
	<path fill="#0084B6" d="M478.389,183.547v-7.497c13.424-1.568,14.993-2.964,14.993-13.599V66.216
		c0-10.635-1.569-12.029-14.993-13.599V45.12h67.121c30.51,0,48.118,11.681,48.118,34.52c0,19.875-18.133,29.986-36.961,31.904
		c26.15,1.046,45.328,13.25,45.328,34.521c0,24.582-18.479,37.482-53.521,37.482H478.389L478.389,183.547z M526.856,53.663v53.871
		h7.496c18.132,0,27.197-9.24,27.197-27.371c0-17.608-10.286-26.326-27.371-26.326h-7.322V53.663z M526.856,117.123v44.456
		c0,10.635,4.185,13.425,15.342,13.425h1.743c15.69,0,25.105-9.938,25.105-29.289c0-17.783-9.59-28.592-30.858-28.592H526.856z"/>
	<path fill="#0084B6" d="M654.473,165.939c0,8.192,4.357,9.238,16.213,10.46v7.147h-59.45v-7.147
		c8.543-0.522,11.683-1.569,11.683-8.021V98.817l-11.508-6.975v-4.533l38.007-10.982h5.928l-0.871,29.812
		c8.717-22.314,14.993-29.812,27.021-29.812c4.358,0,7.496,1.395,9.24,3.312v24.06h-4.185c-12.378,0-22.664,0.522-32.078,9.065
		V165.939L654.473,165.939z"/>
	<path fill="#0084B6" d="M739.725,168.379c0,6.45,3.138,7.497,11.681,8.021v7.147h-54.917v-7.147
		c8.543-0.522,11.682-1.569,11.682-8.021V98.817l-11.507-6.975v-4.533l37.831-10.982h5.405v92.052H739.725z M706.251,49.13
		c0-9.064,6.974-16.911,17.607-16.911s17.783,7.847,17.783,16.911c0,9.065-7.148,16.736-17.783,16.736S706.251,58.196,706.251,49.13
		z"/>
	<path fill="#0084B6" d="M802.139,165.939c0,8.192,4.533,9.238,16.214,10.46v7.147h-59.45v-7.147
		c8.542-0.522,11.681-1.569,11.681-8.021V88.182h-14.121v-6.45l14.121-4.358v-6.102c0-28.593,18.829-42.018,43.586-42.018
		c19.178,0,27.895,6.625,27.895,17.957c0,5.058-2.789,9.415-6.974,11.683h-16.389c0.35-2.441,0.871-5.405,0.871-8.543
		c0-7.148-1.395-13.426-7.671-13.426c-6.45,0-9.589,5.579-9.589,15.691v25.628h23.711v9.938h-23.711v77.757H802.139L802.139,165.939
		z"/>
</g>
</svg>
