<?xml version="1.0" encoding="utf-8"?>
<!-- Generator: Adobe Illustrator 16.0.0, SVG Export Plug-In . SVG Version: 6.00 Build 0)  -->
<!DOCTYPE svg PUBLIC "-//W3C//DTD SVG 1.1//EN" "http://www.w3.org/Graphics/SVG/1.1/DTD/svg11.dtd">
<svg version="1.1" id="Layer_1" xmlns="http://www.w3.org/2000/svg" xmlns:xlink="http://www.w3.org/1999/xlink" x="0px" y="0px"
	 width="842.063px" height="207.269px" viewBox="0 491.739 842.063 207.269" enable-background="new 0 491.739 842.063 207.269"
	 xml:space="preserve">
<g>
	<g>
		<g>
			<path d="M190.554,553.433c-0.523-10.46-4.707-18.479-12.378-27.546c-6.974-8.02-9.065-14.645-9.065-19.177
				c0-1.569,0.174-2.79,0.349-3.487c0.697-4.185,7.671-7.671,7.671-7.671v-1.918c0,0-25.628,10.286-38.704,20.747
				c-13.599,10.809-21.967,23.013-21.967,23.013c-10.286-27.371-32.775-44.108-58.404-44.979
				c-13.772-0.349-33.473,4.707-46.025,17.259C4.01,517.519,0,528.503,0,539.486c0.871,28.418,19.875,39.227,19.875,39.227
				l1.22-2.44c0,0-7.496-8.02-8.368-20.398c-0.697-11.681,7.148-21.792,17.26-25.977c14.993-6.276,31.904-0.174,45.154,16.214
				c11.506,14.296,17.26,30.684,17.26,48.641c0,21.968-10.81,43.062-10.81,43.062l1.395,1.918c0,0,36.264-29.115,36.264-85.078
				c0-3.139-0.35-7.148-1.047-10.286c0,0,1.569-3.312,6.276-8.892l6.451-7.671v56.486c0,0-7.148,1.395-7.148,5.928
				c0,4.882,7.148,5.928,7.148,5.928v51.256c0,0-6.8-1.221-13.25,4.01l-16.911,17.26c0,0-34.868-32.253-37.832-37.832
				c-1.918-3.486-2.44-7.497-2.44-10.983s0.871-6.45,2.44-8.717c2.615-3.836,9.24-3.836,9.24-3.836l0.174-1.918
				c0,0-10.635-0.174-19.003,6.974c-10.286,8.718-13.075,20.572-13.25,26.849c-0.174,8.892,1.918,15.342,7.497,24.06
				c5.056,7.845,33.822,33.473,33.822,33.473l30.684-34.17c0,0-2.44,10.983,2.267,19.874c5.753,11.507,15.517,16.562,30.51,16.562
				c18.131,0,30.857-8.543,38.18-25.803c4.533-10.983,5.579-23.535,5.579-32.252c0-13.25-2.267-26.849-5.928-34.346
				c-5.927-12.378-18.306-17.434-18.306-17.434s7.322-4.185,15.343-11.681C187.939,569.821,191.077,561.453,190.554,553.433
				 M153.768,677.913c0,2.266,0.349,5.927-1.395,9.414c-0.697,1.395-6.45,9.589-19.7,4.358c-19.178-7.846-15.69-24.582-15.517-26.5
				c0,0,2.441,9.24,12.378,9.764c6.8,0.522,12.728-5.057,14.296-10.635c2.79-10.81-6.45-15.517-6.45-15.517v-52.825
				c0,0,2.44,0.175,6.276-0.174c4.01-0.349,8.194-1.396,8.194-1.396s1.743,1.396,1.917,9.415V677.913z M157.778,585.686
				c-3.835-1.046-8.193-1.569-11.506-1.918c-3.139-0.349-7.322-0.174-8.543-0.174v-62.065c4.707-5.056,8.892-7.671,12.204-9.589
				c-1.918,3.661-5.056,10.461-5.056,21.096c0,8.368,4.358,16.911,9.414,23.013c4.01,4.882,9.589,8.543,9.589,16.911
				C164.054,579.759,157.952,585.512,157.778,585.686"/>
			<path d="M339.092,662.396c-17.26,16.388-47.77,8.543-54.743,4.707c0,0,10.112-4.184,16.911-8.543
				c15.517-9.938,21.967-25.977,21.967-32.427c0,0,1.743-12.553-7.497-28.069c-2.44-3.835-4.707-8.02-6.275-12.378
				c-4.882-12.901,6.799-24.582,6.799-24.582c9.414,2.267,20.224,0.872,27.546-4.358c8.194-7.147,12.029-14.47,12.553-21.27
				c1.046-14.645-14.819-19.352-14.819-19.352l-1.918,3.661c0,0,9.589,4.707,10.461,8.368c0.697,2.964-0.175,5.23-1.395,6.625
				c-1.221,1.221-4.708,2.615-7.846,1.221l-59.102-29.639c-19.003-9.937-37.657-20.746-59.624-10.46
				c-16.911,8.717-26.325,29.812-22.142,48.989c1.918,9.938,9.415,16.911,20.572,18.655c6.451,1.046,15.342-0.698,20.572-6.103
				c0.175-0.174,0.175-0.349,0.175-0.349l-2.267-2.789l-0.175,0.174c-3.835,3.139-8.02,4.882-13.772,5.23
				c-7.148,0-15.865-4.707-18.306-12.727c-2.267-8.718,1.22-17.608,9.065-23.362c6.625-4.01,16.388-4.358,23.885-0.871
				l72.525,36.785c0,0-20.921,8.543-28.94,31.73c-2.964,9.065,1.221,23.188,5.056,30.335c3.836,6.974,8.02,13.773,8.02,21.967
				c0,0,0.349,6.276-2.614,11.158c-2.79,5.404-13.947,9.414-13.947,9.414s-36.438-21.095-21.444-70.607
				c5.23-17.435,23.361-29.638,23.361-29.638l-2.789-2.441c0,0-44.108,17.435-51.953,53c-3.661,16.213-3.487,40.272,10.809,58.927
				c16.911,21.967,53.174,31.904,77.407,20.572c9.065-3.661,17.434-10.635,23.71-19.003c9.24-11.855,12.553-30.685,12.553-30.685
				h-4.01C347.809,644.264,345.194,656.469,339.092,662.396"/>
		</g>
	</g>
	<g>
		<path fill="#0084B6" d="M478.39,673.903v-7.497c13.424-1.569,14.993-2.964,14.993-13.599v-96.235
			c0-10.635-1.569-12.03-14.993-13.599v-7.497h67.121c30.51,0,48.118,11.681,48.118,34.52c0,19.875-18.132,29.986-36.961,31.904
			c26.151,1.046,45.329,13.25,45.329,34.52c0,24.582-18.48,37.483-53.522,37.483H478.39z M526.857,544.019v53.871h7.496
			c18.132,0,27.197-9.24,27.197-27.371c0-17.608-10.286-26.326-27.371-26.326h-7.322V544.019z M526.857,607.479v44.456
			c0,10.635,4.184,13.425,15.342,13.425h1.743c15.69,0,25.105-9.938,25.105-29.289c0-17.783-9.589-28.592-30.858-28.592H526.857z"/>
		<path fill="#0084B6" d="M654.474,656.295c0,8.193,4.358,9.239,16.213,10.46v7.148h-59.45v-7.148
			c8.543-0.522,11.682-1.569,11.682-8.02v-69.562l-11.507-6.974v-4.533l38.006-10.983h5.928l-0.871,29.812
			c8.717-22.315,14.993-29.812,27.022-29.812c4.358,0,7.496,1.395,9.24,3.312v24.059h-4.185c-12.378,0-22.664,0.523-32.078,9.066
			V656.295L654.474,656.295z"/>
		<path fill="#0084B6" d="M739.726,658.735c0,6.45,3.138,7.497,11.681,8.02v7.148H696.49v-7.148
			c8.543-0.522,11.681-1.569,11.681-8.02v-69.562l-11.506-6.974v-4.533l37.831-10.983h5.405v92.052H739.726z M706.252,539.486
			c0-9.065,6.974-16.911,17.608-16.911s17.783,7.846,17.783,16.911s-7.148,16.736-17.783,16.736S706.252,548.552,706.252,539.486z"
			/>
		<path fill="#0084B6" d="M802.14,656.295c0,8.193,4.533,9.239,16.214,10.46v7.148h-59.45v-7.148
			c8.542-0.522,11.681-1.569,11.681-8.02v-80.196h-14.122v-6.451l14.122-4.358v-6.102c0-28.592,18.829-42.017,43.585-42.017
			c19.178,0,27.895,6.625,27.895,17.957c0,5.057-2.789,9.415-6.974,11.682h-16.388c0.349-2.441,0.871-5.405,0.871-8.543
			c0-7.148-1.395-13.425-7.671-13.425c-6.45,0-9.589,5.579-9.589,15.691v25.628h23.711v9.938h-23.711v77.756H802.14z"/>
	</g>
</g>
</svg>
